HIERARCHY
ROOT hip
{
	OFFSET 0.000000 0.000000 0.000000 
	CHANNELS 6 Xposition Yposition Zposition Xrotation Zrotation Yrotation
	JOINT abdomen
	{
		OFFSET 0.000000 3.402643 0.000000 
		CHANNELS 3 Xrotation Zrotation Yrotation
		JOINT chest
		{
			OFFSET 0.000000 8.438565 -0.680529 
			CHANNELS 3 Xrotation Zrotation Yrotation
			JOINT neck
			{
				OFFSET 0.000000 10.207942 -0.272212 
				CHANNELS 3 Xrotation Zrotation Yrotation
				JOINT head
				{
					OFFSET 0.000000 3.130431 0.000000 
					CHANNELS 3 Xrotation Zrotation Yrotation
					End Site
					{
						OFFSET 0.000000 3.130435 0.000000 
					}
				}
			}
			JOINT lCollar
			{
				OFFSET 3.470700 6.669187 -0.816635 
				CHANNELS 3 Yrotation Zrotation Xrotation
				JOINT lShldr
				{
					OFFSET 3.198488 0.000000 0.000000 
					CHANNELS 3 Zrotation Yrotation Xrotation
					JOINT lForeArm
					{
						OFFSET 10.139888 0.000000 0.000000 
						CHANNELS 3 Yrotation Zrotation Xrotation
						JOINT lHand
						{
							OFFSET 8.370511 0.000000 0.000000 
							CHANNELS 3 Zrotation Yrotation Xrotation
							End Site
							{
								OFFSET 4.083176 0.000000 0.000000 
							}
						}
					}
				}
			}
			JOINT rCollar
			{
				OFFSET -3.470700 6.669187 -0.816635 
				CHANNELS 3 Yrotation Zrotation Xrotation
				JOINT rShldr
				{
					OFFSET -3.198488 0.000000 0.000000 
					CHANNELS 3 Zrotation Yrotation Xrotation
					JOINT rForeArm
					{
						OFFSET -10.139888 0.000000 0.000000 
						CHANNELS 3 Yrotation Zrotation Xrotation
						JOINT rHand
						{
							OFFSET -8.370511 0.000000 0.000000 
							CHANNELS 3 Zrotation Yrotation Xrotation
							End Site
							{
								OFFSET -4.083176 0.000000 0.000000 
							}
						}
					}
				}
			}
		}
	}
	JOINT lThigh
	{
		OFFSET 5.308129 -1.633274 1.361059 
		CHANNELS 3 Xrotation Zrotation Yrotation
		JOINT lShin
		{
			OFFSET -2.041588 -20.007561 0.000000 
			CHANNELS 3 Xrotation Zrotation Yrotation
			JOINT lFoot
			{
				OFFSET 0.000000 -19.190928 -1.224953 
				CHANNELS 3 Xrotation Yrotation Zrotation
				End Site
				{
					OFFSET 0.000000 -2.449906 4.627600 
				}
			}
		}
	}
	JOINT rThigh
	{
		OFFSET -5.308129 -1.633274 1.361059 
		CHANNELS 3 Xrotation Zrotation Yrotation
		JOINT rShin
		{
			OFFSET 2.041588 -20.007561 0.000000 
			CHANNELS 3 Xrotation Zrotation Yrotation
			JOINT rFoot
			{
				OFFSET 0.000000 -19.190928 -1.224953 
				CHANNELS 3 Xrotation Yrotation Zrotation
				End Site
				{
					OFFSET 0.000000 -2.449906 4.627600 
				}
			}
		}
	}
}
MOTION
Frames: 8
Frame Time: 0.011111
3.560939 75.404091 4.582218 4.480216 0.005797 -4.192067 20.001394 0.187790 0.073882 -23.008806 -0.767962 -0.096655 -17.808578 -3.425876 0.968608 5.982396 9.319247 0.980178 2.424333 -4.683778 1.783845 -47.634136 -58.622337 29.199543 -83.348068 4.454916 24.834377 8.524705 12.647240 -38.186901 -2.738486 -1.140572 2.095526 48.770039 61.084354 28.035847 72.296379 -8.834805 18.244158 -8.534408 -12.637552 34.798683 0.809393 4.611948 -0.770273 16.362957 -5.868116 -3.023327 10.279172 25.027403 -7.674593 -0.925391 -4.074209 10.762319 21.284143 5.698189 3.684588 13.544179 -26.679672 9.271358 
3.585299 76.046448 4.638153 4.716482 -0.294636 -3.787070 19.814585 0.754519 -0.021769 -22.969791 -0.714412 -0.178885 -17.700518 -3.431724 0.980505 5.469523 9.262389 0.970857 2.424333 -4.683778 1.783845 -48.328876 -57.633026 29.003845 -82.593483 5.006225 24.230827 8.524705 12.647240 -38.059948 -2.738486 -1.140572 2.095526 49.438675 60.222195 27.811758 71.308029 -8.994768 17.743660 -8.534408 -12.637552 34.691265 -0.263484 4.929238 -0.066761 17.082678 -5.848143 -3.124917 10.652176 24.505802 -7.650496 -1.190203 -3.698075 10.669891 20.814463 5.717556 3.616530 13.314954 -26.273060 9.059114 
3.629205 76.642494 4.719049 4.882531 -0.779909 -3.830298 19.663576 1.487928 0.312371 -22.637651 -0.790222 -0.158987 -17.565096 -3.525046 1.006902 4.682520 9.354304 0.947275 2.424333 -4.683778 1.783845 -48.847927 -56.683342 28.795383 -81.819229 5.505559 23.673031 8.524705 12.647240 -37.942760 -2.738486 -1.140572 2.095526 50.043285 59.438145 27.508339 70.583603 -9.090719 17.385849 -8.534408 -12.637552 34.749859 -1.269140 5.436010 0.716367 17.928940 -5.840852 -3.219110 10.916522 24.163746 -7.634000 -1.441281 -3.165028 10.770043 20.597281 5.736390 3.580844 13.674102 -25.323921 8.889623 
3.674014 77.188919 4.719952 4.620557 -1.290500 -3.788334 20.345776 2.219913 0.594705 -22.666817 -0.926787 -0.150574 -17.542877 -3.354453 0.930678 4.172552 9.042060 0.806028 2.424333 -4.683778 1.783845 -49.231812 -55.675583 28.665949 -81.096962 5.922513 23.168707 8.524705 12.647240 -37.757210 -2.738486 -1.140572 2.095526 50.715427 58.467907 27.089378 70.091415 -9.153383 17.143005 -8.534408 -12.637552 34.535019 -1.912919 5.962759 1.336572 18.850857 -5.803161 -3.346181 11.568185 23.421638 -7.645895 -1.373403 -2.620042 10.806805 20.629763 5.727363 3.591725 14.542122 -24.281755 8.829784 
3.722432 77.702271 4.627327 4.008170 -1.622259 -3.530375 21.796520 2.736064 0.584046 -23.203997 -0.912653 -0.201665 -17.709236 -3.313090 0.902677 4.277417 8.839366 0.757629 2.424333 -4.683778 1.783845 -49.592529 -54.531128 28.585169 -80.418854 6.280138 22.736324 8.524705 12.647240 -37.522839 -2.738486 -1.140572 2.095526 51.298424 57.331829 26.827940 69.659035 -9.199359 16.927841 -8.534408 -12.637552 34.495949 -2.255790 6.279098 1.553830 19.694580 -5.771345 -3.475415 12.466991 22.410051 -7.640426 -1.139127 -2.286947 10.736391 20.884972 5.717913 3.632445 15.640457 -23.255526 8.818321 
3.759722 78.184036 4.482075 3.307426 -1.811314 -3.186060 23.536604 3.066445 0.419473 -23.946306 -0.824960 -0.285325 -17.898836 -3.451074 0.923762 4.514977 9.015620 0.749236 2.424333 -4.683778 1.783845 -49.852123 -53.475033 28.524025 -79.724983 6.612438 22.292295 8.524705 12.647240 -37.366589 -2.738486 -1.140572 2.095526 51.801319 56.449905 26.797640 68.879654 -9.277020 16.545156 -8.534408 -12.637552 34.906109 -2.538370 6.453033 0.975463 20.396839 -5.765132 -3.566997 12.853880 21.865776 -7.566807 -1.004745 -2.038576 10.883205 21.342106 5.707735 3.701184 16.629641 -22.542322 8.838984 
3.774157 78.626411 4.356069 2.801114 -2.056220 -2.936060 24.917038 3.360169 0.363701 -24.610437 -0.775283 -0.339503 -17.928984 -3.403344 0.849677 4.766135 8.964728 0.639840 2.424333 -4.683778 1.783845 -50.021507 -52.526821 28.537447 -78.952454 6.953060 21.837805 8.524705 12.647240 -37.366589 -2.738486 -1.140572 2.095526 52.325974 55.684837 26.914364 67.853836 -9.356645 16.049541 -8.534408 -12.637552 35.492050 -2.928427 6.696970 0.006948 20.847919 -5.742359 -3.642671 12.960228 21.773825 -7.568133 -1.129947 -1.664275 11.275622 21.954702 5.677918 3.780523 17.491428 -22.046316 8.893346 
3.781976 79.038406 4.300735 2.538351 -2.329410 -2.801224 25.694546 3.695049 0.387906 -24.913181 -0.770209 -0.365512 -17.931942 -3.467763 0.809527 5.168280 9.147959 0.554769 2.424333 -4.683778 1.783845 -50.122276 -51.754749 28.571074 -78.067345 7.301855 21.321074 8.524705 12.647240 -37.513069 -2.738486 -1.140572 2.095526 52.880623 54.929134 26.887177 66.761948 -9.417871 15.529808 -8.534408 -12.637552 35.824074 -3.365079 6.994381 -0.705451 21.012297 -5.732332 -3.665699 13.231013 21.598244 -7.615149 -1.468574 -1.265181 11.673523 22.633652 5.659299 3.866889 18.125395 -21.680227 8.933712 
